<svg width="21" height="21" viewBox="0 0 21 21" fill="none" xmlns="http://www.w3.org/2000/svg">
<path d="M11.3337 9.66699H9.66699C9.43088 9.66699 9.2331 9.58699 9.07366 9.42699C8.91421 9.26699 8.83421 9.06921 8.83366 8.83366C8.8331 8.5981 8.9131 8.40033 9.07366 8.24033C9.23421 8.08033 9.43199 8.00033 9.66699 8.00033H11.3337V6.33366C11.3337 6.09755 11.4137 5.89977 11.5737 5.74033C11.7337 5.58088 11.9314 5.50088 12.167 5.50033C12.4025 5.49977 12.6006 5.57977 12.7612 5.74033C12.9217 5.90088 13.0014 6.09866 13.0003 6.33366V8.00033H14.667C14.9031 8.00033 15.1012 8.08033 15.2612 8.24033C15.4212 8.40033 15.5009 8.5981 15.5003 8.83366C15.4998 9.06921 15.4198 9.26727 15.2603 9.42783C15.1009 9.58838 14.9031 9.6681 14.667 9.66699H13.0003V11.3337C13.0003 11.5698 12.9203 11.7678 12.7603 11.9278C12.6003 12.0878 12.4025 12.1675 12.167 12.167C11.9314 12.1664 11.7337 12.0864 11.5737 11.927C11.4137 11.7675 11.3337 11.5698 11.3337 11.3337V9.66699ZM3.83366 18.8337C3.37533 18.8337 2.9831 18.6706 2.65699 18.3445C2.33088 18.0184 2.16755 17.6259 2.16699 17.167V7.16699C2.16699 6.70866 2.33033 6.31644 2.65699 5.99033C2.98366 5.66421 3.37588 5.50088 3.83366 5.50033H5.50033V3.83366C5.50033 3.37533 5.66366 2.9831 5.99033 2.65699C6.31699 2.33088 6.70921 2.16755 7.16699 2.16699H17.167C17.6253 2.16699 18.0178 2.33033 18.3445 2.65699C18.6712 2.98366 18.8342 3.37588 18.8337 3.83366V13.8337C18.8337 14.292 18.6706 14.6845 18.3445 15.0112C18.0184 15.3378 17.6259 15.5009 17.167 15.5003H15.5003V17.167C15.5003 17.6253 15.3373 18.0178 15.0112 18.3445C14.685 18.6712 14.2925 18.8342 13.8337 18.8337H3.83366ZM7.16699 13.8337H17.167V3.83366H7.16699V13.8337Z" fill="#7357FF"/>
</svg>
