<svg viewBox="0 0 21 20" fill="none" xmlns="http://www.w3.org/2000/svg">
<path d="M3.94922 15.5957C3.08727 15.5957 2.26061 15.2533 1.65112 14.6438C1.04163 14.0343 0.699219 13.2077 0.699219 12.3457V3.8457C0.699219 2.98375 1.04163 2.1571 1.65112 1.54761C2.26061 0.938113 3.08727 0.595703 3.94922 0.595703H17.4492C17.876 0.595703 18.2986 0.679767 18.6929 0.843095C19.0872 1.00642 19.4455 1.24582 19.7473 1.54761C20.0491 1.8494 20.2885 2.20767 20.4518 2.60198C20.6152 2.99629 20.6992 3.41891 20.6992 3.8457V12.3457C20.6992 12.7725 20.6152 13.1951 20.4518 13.5894C20.2885 13.9837 20.0491 14.342 19.7473 14.6438C19.4455 14.9456 19.0872 15.185 18.6929 15.3483C18.2986 15.5116 17.876 15.5957 17.4492 15.5957H11.7112L6.69922 19.3457C6.5135 19.4847 6.29277 19.5693 6.06173 19.59C5.83068 19.6107 5.59844 19.5667 5.39098 19.4629C5.18352 19.3591 5.00903 19.1996 4.88704 19.0023C4.76504 18.805 4.70036 18.5777 4.70022 18.3457V15.5957H3.95022H3.94922ZM11.2132 14.0957H17.4492C17.9133 14.0957 18.3585 13.9113 18.6867 13.5831C19.0148 13.255 19.1992 12.8098 19.1992 12.3457V3.8457C19.1992 3.38157 19.0148 2.93646 18.6867 2.60827C18.3585 2.28008 17.9133 2.0957 17.4492 2.0957H3.94922C3.48509 2.0957 3.03997 2.28008 2.71178 2.60827C2.38359 2.93646 2.19922 3.38157 2.19922 3.8457V12.3457C2.19922 13.3117 2.98322 14.0957 3.94922 14.0957H6.19822V17.8457L11.2132 14.0957Z" fill="white"/>
</svg>
