<svg viewBox="0 0 60 60" fill="none" xmlns="http://www.w3.org/2000/svg">
<path d="M44 11.75C44.1989 11.75 44.3896 11.8291 44.5303 11.9697L48.0303 15.4697C48.3232 15.7626 48.3232 16.2374 48.0303 16.5303L34.5605 30L48.0303 43.4697C48.3232 43.7626 48.3232 44.2374 48.0303 44.5303L44.5303 48.0303C44.2374 48.3232 43.7626 48.3232 43.4697 48.0303L30 34.5605L16.5303 48.0303C16.2374 48.3232 15.7626 48.3232 15.4697 48.0303L11.9697 44.5303C11.8291 44.3896 11.75 44.1989 11.75 44C11.75 43.8011 11.8291 43.6104 11.9697 43.4697L25.4395 30L11.9697 16.5303C11.8291 16.3896 11.75 16.1989 11.75 16C11.75 15.8011 11.8291 15.6104 11.9697 15.4697L15.4697 11.9697L15.584 11.876C15.7063 11.7944 15.8508 11.75 16 11.75C16.1989 11.75 16.3896 11.8291 16.5303 11.9697L30 25.4395L43.4697 11.9697L43.584 11.876C43.7063 11.7944 43.8508 11.75 44 11.75Z" fill="#0156D0" stroke="#0156D0" stroke-width="1.5" stroke-linejoin="round"/>
</svg>
