<svg width="24" height="24" viewBox="0 0 24 24" fill="none" xmlns="http://www.w3.org/2000/svg">
  <!-- Outer eye shape -->
  <path d="M2.89009 9.40997C5.18009 5.80997 8.47009 3.72998 12.0001 3.72998C15.5301 3.72998 18.8201 5.80997 21.1101 9.40997C22.0101 10.82 22.0101 13.19 21.1101 14.6C18.8201 18.19 15.5301 20.27 12.0001 20.27C8.47009 20.27 5.18009 18.19 2.89009 14.6C1.99009 13.19 1.99009 10.82 2.89009 9.40997Z" stroke="#C6C5CA" stroke-width="1.5" stroke-linecap="round" stroke-linejoin="round"/>
  
  <!-- Iris -->
  <path d="M12 15.75C13.7949 15.75 15.25 14.2949 15.25 12.5C15.25 10.7051 13.7949 9.25 12 9.25C10.2051 9.25 8.75 10.7051 8.75 12.5C8.75 14.2949 10.2051 15.75 12 15.75Z" stroke="#C6C5CA" stroke-width="1.5" stroke-linecap="round" stroke-linejoin="round"/>
</svg>
