<svg viewBox="0 0 21 21" fill="none" xmlns="http://www.w3.org/2000/svg">
<g clip-path="url(#clip0_8350_32429)">
<path d="M10.0495 4.34961C5.88281 4.34961 2.32448 6.94128 0.882812 10.5996C2.32448 14.2579 5.88281 16.8496 10.0495 16.8496C14.2161 16.8496 17.7745 14.2579 19.2161 10.5996C17.7745 6.94128 14.2161 4.34961 10.0495 4.34961ZM10.0495 14.7663C7.74948 14.7663 5.88281 12.8996 5.88281 10.5996C5.88281 8.29961 7.74948 6.43294 10.0495 6.43294C12.3495 6.43294 14.2161 8.29961 14.2161 10.5996C14.2161 12.8996 12.3495 14.7663 10.0495 14.7663ZM10.0495 8.09961C8.66615 8.09961 7.54948 9.21628 7.54948 10.5996C7.54948 11.9829 8.66615 13.0996 10.0495 13.0996C11.4328 13.0996 12.5495 11.9829 12.5495 10.5996C12.5495 9.21628 11.4328 8.09961 10.0495 8.09961Z" fill="white"/>
</g>
<defs>
<clipPath id="clip0_8350_32429">
<rect width="20" height="20" fill="white" transform="translate(0.0488281 0.599609)"/>
</clipPath>
</defs>
</svg>
