<svg width="30" height="29" viewBox="0 0 30 29" fill="none" xmlns="http://www.w3.org/2000/svg">
<g clip-path="url(#clip0_8350_32536)">
<path d="M14.8709 0.558594C6.87913 0.558594 0.400391 6.81392 0.400391 14.5301C0.400391 21.4507 5.61728 27.182 12.4575 28.2918V17.445H8.96678V13.5416H12.4575V10.6634C12.4575 7.32392 14.57 5.50409 17.6559 5.50409C19.1339 5.50409 20.404 5.61043 20.7727 5.65726V9.14793L18.6324 9.14893C16.9546 9.14893 16.6311 9.91859 16.6311 11.0484V13.5396H20.6346L20.1125 17.443H16.6311V28.3852C23.7906 27.5438 29.3412 21.6665 29.3412 14.5261C29.3412 6.81393 22.8624 0.558594 14.8709 0.558594Z" fill="#1778F2"/>
<ellipse cx="14.9004" cy="14.5" rx="14.5" ry="14" fill="white"/>
<path d="M14.9005 0.5C6.89238 0.5 0.400391 6.79432 0.400391 14.5586C0.400391 21.5223 5.62796 27.2893 12.4822 28.4061V17.4916H8.98431V13.5639H12.4822V10.6678C12.4822 7.3075 14.599 5.47632 17.6912 5.47632C19.1722 5.47632 20.4449 5.58332 20.8144 5.63044V9.14287L18.6697 9.14387C16.9884 9.14387 16.6643 9.91834 16.6643 11.0552V13.5619H20.676L20.1528 17.4896H16.6643V28.5C23.8385 27.6534 29.4004 21.7395 29.4004 14.5546C29.4004 6.79432 22.9084 0.5 14.9005 0.5Z" fill="#1778F2"/>
</g>
<defs>
<clipPath id="clip0_8350_32536">
<rect width="29" height="28" fill="white" transform="translate(0.400391 0.5)"/>
</clipPath>
</defs>
</svg>
