<svg width="22" height="22" viewBox="0 0 22 22" fill="none" xmlns="http://www.w3.org/2000/svg">
<path d="M15.7008 20H6.19021V8.48302L12.1302 2L12.5489 2.46277C12.6348 2.5584 12.7075 2.68055 12.7668 2.82922C12.8262 2.9779 12.8556 3.1147 12.8549 3.23965V3.40507L11.8858 8.48302H18.47C18.866 8.48302 19.2197 8.65542 19.5311 9.00023C19.8424 9.34504 19.9987 9.73662 20 10.175V11.4628C20 11.5584 19.9905 11.6624 19.9716 11.7748C19.9526 11.8872 19.9267 11.9912 19.8939 12.0868L17.3076 18.8651C17.1775 19.1868 16.9586 19.4566 16.6511 19.6744C16.3441 19.8915 16.0274 20 15.7008 20ZM7.13758 18.953H15.7008C15.8341 18.953 15.9705 18.9129 16.1101 18.8326C16.2503 18.7516 16.3567 18.6173 16.4294 18.4295L19.0526 11.624V10.175C19.0526 9.98651 18.998 9.8319 18.8887 9.71114C18.7795 9.59039 18.6399 9.53001 18.47 9.53001H10.7082L11.8053 3.81235L7.13758 8.93008V18.953ZM6.19021 8.48302V9.53001H2.94737V18.953H6.19021V20H2V8.48302H6.19021Z" fill="#4F4B5C"/>
<path d="M6.19021 20H15.7008C16.0274 20 16.3441 19.8915 16.6511 19.6744C16.9586 19.4566 17.1775 19.1868 17.3076 18.8651L19.8939 12.0868C19.9267 11.9912 19.9526 11.8872 19.9716 11.7748C19.9905 11.6624 20 11.5584 20 11.4628V10.175C19.9987 9.73662 19.8424 9.34504 19.5311 9.00023C19.2197 8.65542 18.866 8.48302 18.47 8.48302H11.8858L12.8549 3.40507V3.23965C12.8556 3.1147 12.8262 2.9779 12.7668 2.82922C12.7075 2.68055 12.6348 2.5584 12.5489 2.46277L12.1302 2L6.19021 8.48302M6.19021 20V8.48302M6.19021 20V18.953H2.94737V9.53001H6.19021V8.48302M6.19021 20H2V8.48302H6.19021M7.13758 18.953H15.7008C15.8341 18.953 15.9705 18.9129 16.1101 18.8326C16.2503 18.7516 16.3567 18.6173 16.4294 18.4295L19.0526 11.624V10.175C19.0526 9.98651 18.998 9.8319 18.8887 9.71115C18.7795 9.59039 18.6399 9.53001 18.47 9.53001H10.7082L11.8053 3.81235L7.13758 8.93008V18.953Z" stroke="#4F4B5C" stroke-width="0.5" stroke-linejoin="round"/>
</svg>
