<svg width="14" height="14" viewBox="0 0 14 14" fill="none" xmlns="http://www.w3.org/2000/svg">
<path d="M8.16634 1.32422V3.7337C8.16634 4.0604 8.16634 4.22375 8.22992 4.34853C8.28585 4.45829 8.37509 4.54753 8.48485 4.60345C8.60963 4.66703 8.77298 4.66703 9.09967 4.66703H11.5092M8.16634 9.91699H4.66634M9.33301 7.58366H4.66634M11.6663 5.82679V10.0337C11.6663 11.0138 11.6663 11.5038 11.4756 11.8781C11.3078 12.2074 11.0401 12.4751 10.7108 12.6429C10.3365 12.8337 9.84643 12.8337 8.86634 12.8337H5.13301C4.15292 12.8337 3.66287 12.8337 3.28852 12.6429C2.95924 12.4751 2.69152 12.2074 2.52375 11.8781C2.33301 11.5038 2.33301 11.0138 2.33301 10.0337V3.96699C2.33301 2.9869 2.33301 2.49685 2.52375 2.12251C2.69152 1.79323 2.95924 1.52551 3.28852 1.35773C3.66287 1.16699 4.15292 1.16699 5.13301 1.16699H7.00654C7.43458 1.16699 7.64859 1.16699 7.85 1.21534C8.02856 1.25821 8.19926 1.32892 8.35584 1.42487C8.53244 1.5331 8.68378 1.68443 8.98644 1.98709L10.8462 3.84689C11.1489 4.14956 11.3002 4.30089 11.4085 4.47749C11.5044 4.63407 11.5751 4.80477 11.618 4.98334C11.6663 5.18474 11.6663 5.39876 11.6663 5.82679Z" stroke="black" stroke-width="1.25" stroke-linecap="round" stroke-linejoin="round"/>
</svg>
