<svg width="26" height="26" viewBox="0 0 26 26" fill="none" xmlns="http://www.w3.org/2000/svg">
<path d="M9.05446 0.84685C5.92246 1.91965 3.25126 4.26685 1.76806 7.22605C1.24966 8.24845 0.87526 9.33565 0.65206 10.4589C0.0832599 13.2525 0.47926 16.2261 1.76806 18.7749C2.60326 20.4381 3.80566 21.9141 5.26006 23.0661C6.63526 24.1605 8.23366 24.9669 9.93286 25.4205C12.0713 25.9965 14.3537 25.9821 16.5137 25.4925C18.4649 25.0461 20.3081 24.1101 21.7769 22.7565C23.3321 21.3237 24.4409 19.4445 25.0313 17.4213C25.6721 15.2109 25.7585 12.8565 25.3553 10.5957C21.3233 10.5957 17.2913 10.5957 13.2521 10.5957C13.2521 12.2661 13.2521 13.9437 13.2521 15.6141C15.5849 15.6141 17.9249 15.6141 20.2577 15.6141C19.9841 17.2197 19.0337 18.6813 17.6801 19.5885C16.8305 20.1573 15.8585 20.5317 14.8505 20.7045C13.8353 20.8773 12.7913 20.8989 11.7833 20.6973C10.7537 20.4957 9.77446 20.0637 8.91766 19.4589C7.54966 18.5013 6.50566 17.0901 5.97286 15.5133C5.42566 13.9077 5.41846 12.1149 5.97286 10.5093C6.35446 9.37885 6.99526 8.32765 7.83766 7.47805C8.87446 6.41245 10.2209 5.65645 11.6753 5.34685C12.9209 5.08045 14.2313 5.13085 15.4481 5.49805C16.4849 5.81485 17.4353 6.37645 18.2201 7.12525C19.0121 6.34045 19.7969 5.54845 20.5889 4.76365C20.9993 4.33885 21.4385 3.93565 21.8417 3.49645C20.6465 2.38765 19.2353 1.49485 17.7017 0.93325C14.9513 -0.09635 11.8337 -0.11795 9.05446 0.84685Z" fill="white"/>
<path d="M9.05435 0.846704C11.8335 -0.118096 14.9511 -0.0964954 17.7159 0.925905C19.2495 1.4875 20.6535 2.3803 21.8559 3.4891C21.4527 3.9211 21.0207 4.3315 20.6031 4.7563C19.8111 5.5411 19.0263 6.3331 18.2343 7.1179C17.4495 6.3691 16.4991 5.8003 15.4623 5.4907C14.2455 5.1235 12.9351 5.0731 11.6895 5.3395C10.2351 5.6491 8.88875 6.4123 7.85195 7.4707C7.00955 8.3203 6.36875 9.3715 5.98715 10.5019C4.58315 9.4147 3.17915 8.3203 1.77515 7.2331C3.25115 4.2667 5.92235 1.9195 9.05435 0.846704Z" fill="#E94435"/>
<path d="M0.65206 10.4584C0.87526 9.33519 1.25686 8.24799 1.76806 7.22559C3.17206 8.31279 4.57606 9.40719 5.98006 10.4944C5.42566 12.1 5.43286 13.8928 5.98006 15.4984C4.57606 16.5856 3.17206 17.68 1.76806 18.7672C0.47926 16.2328 0.0832599 13.252 0.65206 10.4584Z" fill="#F8BB15"/>
<path d="M13.2592 10.5879C17.2912 10.5879 21.3232 10.5879 25.3624 10.5879C25.7656 12.8487 25.6792 15.2031 25.0384 17.4135C24.448 19.4367 23.3392 21.3231 21.784 22.7487C20.4232 21.6903 19.0552 20.6319 17.7016 19.5735C19.0552 18.6735 20.0056 17.2047 20.2792 15.5991C17.9464 15.5991 15.6064 15.5991 13.2736 15.5991C13.252 13.9359 13.2592 12.2655 13.2592 10.5879Z" fill="#547DBE"/>
<path d="M1.76807 18.7747C3.17207 17.6875 4.57607 16.5931 5.98007 15.5059C6.51287 17.0899 7.55687 18.4939 8.92487 19.4515C9.78167 20.0563 10.7609 20.4811 11.7905 20.6899C12.7985 20.8915 13.8497 20.8699 14.8577 20.6971C15.8657 20.5243 16.8377 20.1499 17.6873 19.5811C19.0481 20.6395 20.4161 21.6979 21.7697 22.7563C20.3009 24.1171 18.4577 25.0459 16.5065 25.4923C14.3537 25.9819 12.0713 25.9963 9.92567 25.4203C8.22647 24.9667 6.62807 24.1603 5.25287 23.0659C3.80567 21.9067 2.60327 20.4307 1.76807 18.7747Z" fill="#34A751"/>
</svg>
