<svg width="27" height="27" viewBox="0 0 27 27" fill="none" xmlns="http://www.w3.org/2000/svg">
<path d="M5.03256 19.9043C4.72561 19.9043 4.4685 19.8003 4.26122 19.5923C4.05394 19.3843 3.94994 19.1272 3.94922 18.821C3.9485 18.5147 4.0525 18.2576 4.26122 18.0496C4.46994 17.8416 4.72706 17.7376 5.03256 17.7376H15.8659C16.1728 17.7376 16.4303 17.8416 16.6383 18.0496C16.8463 18.2576 16.9499 18.5147 16.9492 18.821C16.9485 19.1272 16.8445 19.3847 16.6372 19.5934C16.4299 19.8021 16.1728 19.9057 15.8659 19.9043H5.03256ZM5.03256 14.4876C4.72561 14.4876 4.4685 14.3836 4.26122 14.1756C4.05394 13.9676 3.94994 13.7105 3.94922 13.4043C3.9485 13.0981 4.0525 12.841 4.26122 12.633C4.46994 12.425 4.72706 12.321 5.03256 12.321H22.3659C22.6728 12.321 22.9303 12.425 23.1383 12.633C23.3463 12.841 23.4499 13.0981 23.4492 13.4043C23.4485 13.7105 23.3445 13.968 23.1372 14.1767C22.9299 14.3854 22.6728 14.4891 22.3659 14.4876H5.03256ZM5.03256 9.07096C4.72561 9.07096 4.4685 8.96696 4.26122 8.75896C4.05394 8.55096 3.94994 8.29385 3.94922 7.98763C3.9485 7.68141 4.0525 7.4243 4.26122 7.2163C4.46994 7.0083 4.72706 6.9043 5.03256 6.9043H22.3659C22.6728 6.9043 22.9303 7.0083 23.1383 7.2163C23.3463 7.4243 23.4499 7.68141 23.4492 7.98763C23.4485 8.29385 23.3445 8.55132 23.1372 8.76005C22.9299 8.96877 22.6728 9.07241 22.3659 9.07096H5.03256Z" fill="white"/>
</svg>
