<svg viewBox="0 0 26 25" fill="none" xmlns="http://www.w3.org/2000/svg">
<path d="M2.58268 8.33366C2.58268 7.78113 2.80218 7.25122 3.19288 6.86052C3.58358 6.46982 4.11348 6.25033 4.66601 6.25033L17.166 6.25032C17.7185 6.25032 18.2485 6.46982 18.6392 6.86052C19.0299 7.25122 19.2493 7.78112 19.2493 8.33366L19.2493 20.8337C19.2493 21.9899 18.3223 22.917 17.166 22.917L4.66602 22.917C4.11348 22.917 3.58358 22.6975 3.19288 22.3068C2.80218 21.9161 2.58268 21.3862 2.58268 20.8337L2.58268 8.33366ZM8.83268 4.16699L8.83268 2.08366L21.3327 2.08366C21.8852 2.08366 22.4151 2.30315 22.8058 2.69385C23.1965 3.08455 23.416 3.61446 23.416 4.16699L23.416 17.7087L21.3327 17.7087L21.3327 4.16699L8.83268 4.16699Z" fill="white"/>
</svg>
