<svg viewBox="0 0 23 24" fill="none" xmlns="http://www.w3.org/2000/svg">
<mask id="path-1-inside-1_8571_58533" fill="white">
<path d="M20.4395 11.601L11.8895 3.051C11.5333 2.69768 11.0517 2.4996 10.55 2.5H3.9C3.39609 2.5 2.91282 2.70018 2.5565 3.0565C2.20018 3.41282 2 3.89609 2 4.4V11.05C1.9998 11.3007 2.04923 11.549 2.14542 11.7805C2.24162 12.012 2.38269 12.2222 2.5605 12.399L11.1105 20.949C11.4667 21.3023 11.9483 21.5004 12.45 21.5C12.9531 21.4979 13.4348 21.2963 13.7895 20.9395L20.4395 14.2895C20.7963 13.9348 20.9979 13.4531 21 12.95C21.0002 12.6993 20.9508 12.451 20.8546 12.2195C20.7584 11.988 20.6173 11.7778 20.4395 11.601ZM12.45 19.6L3.9 11.05V4.4H10.55L19.1 12.95M6.275 5.35C6.55684 5.35 6.83235 5.43358 7.06669 5.59016C7.30103 5.74674 7.48367 5.96929 7.59153 6.22968C7.69938 6.49006 7.7276 6.77658 7.67262 7.053C7.61764 7.32943 7.48192 7.58334 7.28263 7.78263C7.08334 7.98192 6.82943 8.11764 6.553 8.17262C6.27658 8.2276 5.99006 8.19938 5.72968 8.09153C5.46929 7.98367 5.24674 7.80103 5.09016 7.56669C4.93358 7.33235 4.85 7.05684 4.85 6.775C4.85 6.39707 5.00013 6.03461 5.26737 5.76737C5.53461 5.50013 5.89707 5.35 6.275 5.35Z"/>
</mask>
<path d="M20.4395 11.601L11.8895 3.051C11.5333 2.69768 11.0517 2.4996 10.55 2.5H3.9C3.39609 2.5 2.91282 2.70018 2.5565 3.0565C2.20018 3.41282 2 3.89609 2 4.4V11.05C1.9998 11.3007 2.04923 11.549 2.14542 11.7805C2.24162 12.012 2.38269 12.2222 2.5605 12.399L11.1105 20.949C11.4667 21.3023 11.9483 21.5004 12.45 21.5C12.9531 21.4979 13.4348 21.2963 13.7895 20.9395L20.4395 14.2895C20.7963 13.9348 20.9979 13.4531 21 12.95C21.0002 12.6993 20.9508 12.451 20.8546 12.2195C20.7584 11.988 20.6173 11.7778 20.4395 11.601ZM12.45 19.6L3.9 11.05V4.4H10.55L19.1 12.95M6.275 5.35C6.55684 5.35 6.83235 5.43358 7.06669 5.59016C7.30103 5.74674 7.48367 5.96929 7.59153 6.22968C7.69938 6.49006 7.7276 6.77658 7.67262 7.053C7.61764 7.32943 7.48192 7.58334 7.28263 7.78263C7.08334 7.98192 6.82943 8.11764 6.553 8.17262C6.27658 8.2276 5.99006 8.19938 5.72968 8.09153C5.46929 7.98367 5.24674 7.80103 5.09016 7.56669C4.93358 7.33235 4.85 7.05684 4.85 6.775C4.85 6.39707 5.00013 6.03461 5.26737 5.76737C5.53461 5.50013 5.89707 5.35 6.275 5.35Z" fill="currentColor"/>
<path d="M20.4395 11.601L20.2274 11.8131L20.228 11.8138L20.4395 11.601ZM11.8895 3.051L12.1016 2.83887L12.1008 2.838L11.8895 3.051ZM10.55 2.5V2.8L10.5502 2.8L10.55 2.5ZM3.9 2.5V2.2V2.5ZM2 4.4H1.7H2ZM2 11.05L2.3 11.0502V11.05H2ZM2.5605 12.399L2.77263 12.1869L2.772 12.1862L2.5605 12.399ZM11.1105 20.949L10.8984 21.1611L10.8992 21.162L11.1105 20.949ZM12.45 21.5L12.4502 21.8L12.4513 21.8L12.45 21.5ZM13.7895 20.9395L13.5774 20.7274L13.5767 20.728L13.7895 20.9395ZM20.4395 14.2895L20.228 14.0767L20.2274 14.0774L20.4395 14.2895ZM21 12.95L21.3 12.9513L21.3 12.9502L21 12.95ZM12.2379 19.8121C12.355 19.9293 12.545 19.9293 12.6621 19.8121C12.7793 19.695 12.7793 19.505 12.6621 19.3879L12.45 19.6L12.2379 19.8121ZM3.9 11.05H3.6C3.6 11.1296 3.63161 11.2059 3.68787 11.2621L3.9 11.05ZM3.9 4.4V4.1C3.73432 4.1 3.6 4.23432 3.6 4.4H3.9ZM10.55 4.4L10.7621 4.18787C10.7059 4.13161 10.6296 4.1 10.55 4.1V4.4ZM18.8879 13.1621C19.005 13.2793 19.195 13.2793 19.3121 13.1621C19.4293 13.045 19.4293 12.855 19.3121 12.7379L19.1 12.95L18.8879 13.1621ZM6.275 5.35V5.65V5.35ZM4.85 6.775H4.55H4.85ZM20.4395 11.601L20.6516 11.3889L12.1016 2.83887L11.8895 3.051L11.6774 3.26313L20.2274 11.8131L20.4395 11.601ZM11.8895 3.051L12.1008 2.838C11.6883 2.42889 11.1307 2.19954 10.5498 2.2L10.55 2.5L10.5502 2.8C10.9728 2.79966 11.3783 2.96646 11.6782 3.264L11.8895 3.051ZM10.55 2.5V2.2H3.9V2.5V2.8H10.55V2.5ZM3.9 2.5V2.2C3.31652 2.2 2.75695 2.43179 2.34437 2.84437L2.5565 3.0565L2.76863 3.26863C3.06869 2.96857 3.47565 2.8 3.9 2.8V2.5ZM2.5565 3.0565L2.34437 2.84437C1.93179 3.25695 1.7 3.81652 1.7 4.4H2H2.3C2.3 3.97565 2.46857 3.56869 2.76863 3.26863L2.5565 3.0565ZM2 4.4H1.7V11.05H2H2.3V4.4H2ZM2 11.05L1.7 11.0498C1.69977 11.3401 1.757 11.6275 1.86839 11.8956L2.14542 11.7805L2.42246 11.6654C2.34145 11.4704 2.29983 11.2614 2.3 11.0502L2 11.05ZM2.14542 11.7805L1.86839 11.8956C1.97977 12.1637 2.14312 12.4071 2.349 12.6118L2.5605 12.399L2.772 12.1862C2.62227 12.0374 2.50347 11.8604 2.42246 11.6654L2.14542 11.7805ZM2.5605 12.399L2.34837 12.6111L10.8984 21.1611L11.1105 20.949L11.3226 20.7369L2.77263 12.1869L2.5605 12.399ZM11.1105 20.949L10.8992 21.162C11.3117 21.5711 11.8693 21.8005 12.4502 21.8L12.45 21.5L12.4498 21.2C12.0272 21.2003 11.6217 21.0335 11.3218 20.736L11.1105 20.949ZM12.45 21.5L12.4513 21.8C13.0338 21.7975 13.5916 21.5641 14.0023 21.151L13.7895 20.9395L13.5767 20.728C13.2781 21.0285 12.8724 21.1982 12.4487 21.2L12.45 21.5ZM13.7895 20.9395L14.0016 21.1516L20.6516 14.5016L20.4395 14.2895L20.2274 14.0774L13.5774 20.7274L13.7895 20.9395ZM20.4395 14.2895L20.651 14.5023C21.0641 14.0916 21.2975 13.5338 21.3 12.9513L21 12.95L20.7 12.9487C20.6982 13.3724 20.5285 13.7781 20.228 14.0767L20.4395 14.2895ZM21 12.95L21.3 12.9502C21.3002 12.6599 21.243 12.3725 21.1316 12.1044L20.8546 12.2195L20.5775 12.3346C20.6585 12.5296 20.7002 12.7386 20.7 12.9498L21 12.95ZM20.8546 12.2195L21.1316 12.1044C21.0202 11.8363 20.8569 11.5929 20.651 11.3882L20.4395 11.601L20.228 11.8138C20.3777 11.9626 20.4965 12.1396 20.5775 12.3346L20.8546 12.2195ZM12.45 19.6L12.6621 19.3879L4.11213 10.8379L3.9 11.05L3.68787 11.2621L12.2379 19.8121L12.45 19.6ZM3.9 11.05H4.2V4.4H3.9H3.6V11.05H3.9ZM3.9 4.4V4.7H10.55V4.4V4.1H3.9V4.4ZM10.55 4.4L10.3379 4.61213L18.8879 13.1621L19.1 12.95L19.3121 12.7379L10.7621 4.18787L10.55 4.4ZM6.275 5.35V5.65C6.4975 5.65 6.71501 5.71598 6.90002 5.8396L7.06669 5.59016L7.23336 5.34072C6.94968 5.15117 6.61617 5.05 6.275 5.05V5.35ZM7.06669 5.59016L6.90002 5.8396C7.08502 5.96321 7.22922 6.13891 7.31436 6.34448L7.59153 6.22968L7.86869 6.11487C7.73813 5.79967 7.51703 5.53026 7.23336 5.34072L7.06669 5.59016ZM7.59153 6.22968L7.31436 6.34448C7.39951 6.55005 7.42179 6.77625 7.37838 6.99448L7.67262 7.053L7.96685 7.11153C8.03341 6.77691 7.99925 6.43007 7.86869 6.11487L7.59153 6.22968ZM7.67262 7.053L7.37838 6.99448C7.33498 7.21271 7.22783 7.41316 7.0705 7.5705L7.28263 7.78263L7.49476 7.99476C7.73601 7.75351 7.9003 7.44615 7.96685 7.11153L7.67262 7.053ZM7.28263 7.78263L7.0705 7.5705C6.91316 7.72783 6.71271 7.83498 6.49448 7.87838L6.553 8.17262L6.61153 8.46685C6.94615 8.4003 7.25351 8.23601 7.49476 7.99476L7.28263 7.78263ZM6.553 8.17262L6.49448 7.87838C6.27625 7.92179 6.05005 7.89951 5.84448 7.81436L5.72968 8.09153L5.61487 8.36869C5.93007 8.49925 6.27691 8.53341 6.61153 8.46685L6.553 8.17262ZM5.72968 8.09153L5.84448 7.81436C5.63891 7.72922 5.46321 7.58502 5.3396 7.40002L5.09016 7.56669L4.84072 7.73336C5.03026 8.01703 5.29967 8.23813 5.61487 8.36869L5.72968 8.09153ZM5.09016 7.56669L5.3396 7.40002C5.21598 7.21501 5.15 6.9975 5.15 6.775H4.85H4.55C4.55 7.11617 4.65117 7.44968 4.84072 7.73336L5.09016 7.56669ZM4.85 6.775H5.15C5.15 6.47663 5.26853 6.19048 5.47951 5.97951L5.26737 5.76737L5.05524 5.55524C4.73174 5.87874 4.55 6.3175 4.55 6.775H4.85ZM5.26737 5.76737L5.47951 5.97951C5.69048 5.76853 5.97663 5.65 6.275 5.65V5.35V5.05C5.8175 5.05 5.37874 5.23174 5.05524 5.55524L5.26737 5.76737Z" fill="white" mask="url(#path-1-inside-1_8571_58533)"/>
</svg>
