<svg viewBox="0 0 20 18" fill="none" xmlns="http://www.w3.org/2000/svg">
<path d="M15.1612 17.5963H5.12222V6.5963L11.3922 0.404297L11.8342 0.846297C11.9249 0.93763 12.0016 1.0543 12.0642 1.1963C12.1269 1.3383 12.1579 1.46896 12.1572 1.5883V1.7463L11.1342 6.5963H18.0842C18.5022 6.5963 18.8756 6.76096 19.2042 7.0903C19.5329 7.41963 19.6979 7.79363 19.6992 8.2123V9.4423C19.6992 9.53363 19.6892 9.63296 19.6692 9.7403C19.6492 9.84763 19.6219 9.94696 19.5872 10.0383L16.8572 16.5123C16.7199 16.8196 16.4889 17.0773 16.1642 17.2853C15.8402 17.4926 15.5059 17.5963 15.1612 17.5963ZM6.12222 16.5963H15.1612C15.3019 16.5963 15.4459 16.558 15.5932 16.4813C15.7412 16.404 15.8536 16.2756 15.9302 16.0963L18.6992 9.5963V8.2123C18.6992 8.0323 18.6416 7.88463 18.5262 7.7693C18.4109 7.65396 18.2636 7.5963 18.0842 7.5963H9.89122L11.0492 2.1353L6.12222 7.0233V16.5963ZM5.12222 6.5963V7.5963H1.69922V16.5963H5.12222V17.5963H0.699219V6.5963H5.12222Z" fill="white"/>
<path d="M5.12222 17.5963H15.1612C15.5059 17.5963 15.8402 17.4926 16.1642 17.2853C16.4889 17.0773 16.7199 16.8196 16.8572 16.5123L19.5872 10.0383C19.6219 9.94696 19.6492 9.84763 19.6692 9.7403C19.6892 9.63296 19.6992 9.53363 19.6992 9.4423V8.2123C19.6979 7.79363 19.5329 7.41963 19.2042 7.0903C18.8756 6.76096 18.5022 6.5963 18.0842 6.5963H11.1342L12.1572 1.7463V1.5883C12.1579 1.46896 12.1269 1.3383 12.0642 1.1963C12.0016 1.0543 11.9249 0.93763 11.8342 0.846297L11.3922 0.404297L5.12222 6.5963M5.12222 17.5963V6.5963M5.12222 17.5963V16.5963H1.69922V7.5963H5.12222V6.5963M5.12222 17.5963H0.699219V6.5963H5.12222M6.12222 16.5963H15.1612C15.3019 16.5963 15.4459 16.558 15.5932 16.4813C15.7412 16.404 15.8536 16.2756 15.9302 16.0963L18.6992 9.5963V8.2123C18.6992 8.0323 18.6416 7.88463 18.5262 7.7693C18.4109 7.65396 18.2636 7.5963 18.0842 7.5963H9.89122L11.0492 2.1353L6.12222 7.0233V16.5963Z" stroke="white" stroke-width="0.5" stroke-linejoin="round"/>
</svg>
