<svg viewBox="0 0 32 31" fill="none" xmlns="http://www.w3.org/2000/svg">
<path d="M14.3789 17.3212C14.9085 17.825 14.9085 18.6517 14.3789 19.1554C13.8752 19.6592 13.0485 19.6592 12.5448 19.1554C11.335 17.9438 10.6555 16.3016 10.6555 14.5894C10.6555 12.8772 11.335 11.235 12.5448 10.0233L17.1173 5.45083C18.3289 4.24103 19.9711 3.56152 21.6833 3.56152C23.3955 3.56152 25.0377 4.24103 26.2494 5.45083C27.4592 6.66245 28.1387 8.30467 28.1387 10.0169C28.1387 11.7291 27.4592 13.3713 26.2494 14.5829L24.3248 16.5075C24.3377 15.4483 24.1698 14.3892 23.8081 13.3817L24.4152 12.7617C24.7776 12.4036 25.0654 11.9772 25.2617 11.5072C25.4581 11.0371 25.5593 10.5328 25.5593 10.0233C25.5593 9.5139 25.4581 9.00953 25.2617 8.53947C25.0654 8.06942 24.7776 7.64302 24.4152 7.285C24.0572 6.92258 23.6308 6.63484 23.1607 6.43845C22.6907 6.24207 22.1863 6.14094 21.6769 6.14094C21.1674 6.14094 20.6631 6.24207 20.193 6.43845C19.7229 6.63484 19.2965 6.92258 18.9385 7.285L14.3789 11.8446C14.0165 12.2026 13.7288 12.629 13.5324 13.0991C13.336 13.5691 13.2349 14.0735 13.2349 14.5829C13.2349 15.0924 13.336 15.5967 13.5324 16.0668C13.7288 16.5368 14.0165 16.9632 14.3789 17.3212ZM18.0214 11.8446C18.5252 11.3408 19.3519 11.3408 19.8556 11.8446C21.0654 13.0562 21.7449 14.6984 21.7449 16.4106C21.7449 18.1228 21.0654 19.765 19.8556 20.9767L15.2831 25.5492C14.0715 26.759 12.4293 27.4385 10.7171 27.4385C9.00487 27.4385 7.36265 26.759 6.15103 25.5492C4.94123 24.3375 4.26172 22.6953 4.26172 20.9831C4.26172 19.2709 4.94123 17.6287 6.15103 16.4171L8.07561 14.4925C8.0627 15.5517 8.23061 16.6108 8.59228 17.6312L7.9852 18.2383C7.62278 18.5964 7.33504 19.0228 7.13865 19.4928C6.94226 19.9629 6.84114 20.4672 6.84114 20.9767C6.84114 21.4861 6.94226 21.9905 7.13865 22.4605C7.33504 22.9306 7.62278 23.357 7.9852 23.715C8.34321 24.0774 8.76961 24.3652 9.23967 24.5615C9.70973 24.7579 10.2141 24.8591 10.7235 24.8591C11.233 24.8591 11.7373 24.7579 12.2074 24.5615C12.6774 24.3652 13.1038 24.0774 13.4619 23.715L18.0214 19.1554C18.3839 18.7974 18.6716 18.371 18.868 17.9009C19.0644 17.4309 19.1655 16.9265 19.1655 16.4171C19.1655 15.9076 19.0644 15.4033 18.868 14.9332C18.6716 14.4632 18.3839 14.0368 18.0214 13.6787C17.896 13.5612 17.796 13.4192 17.7276 13.2614C17.6593 13.1037 17.624 12.9336 17.624 12.7617C17.624 12.5897 17.6593 12.4197 17.7276 12.2619C17.796 12.1042 17.896 11.9621 18.0214 11.8446Z" fill="white"/>
</svg>
