<svg width="20" height="20" viewBox="0 0 20 20" fill="none" xmlns="http://www.w3.org/2000/svg">
<path d="M5.84283 5.41634H13.9862C15.7453 5.41634 16.6253 5.41634 17.257 5.83801C17.5312 6.02051 17.7653 6.25467 17.9487 6.52801C18.1828 6.87801 18.287 7.30551 18.3337 7.91717M10.0187 5.41717L9.48949 4.36051C9.05116 3.48551 8.65116 2.60551 7.67949 2.24217C7.25449 2.08301 6.76866 2.08301 5.79616 2.08301C4.27949 2.08301 3.52116 2.08301 2.95116 2.39967C2.54561 2.62537 2.21089 2.95951 1.98449 3.36467C1.66699 3.93301 1.66699 4.68967 1.66699 6.20384V8.74967C1.66699 12.6788 1.66699 14.643 2.89033 15.863C3.97533 16.9463 5.63449 17.0688 8.75033 17.0822H9.16699" stroke="#444444" stroke-width="1.25" stroke-linecap="round" stroke-linejoin="round"/>
<path d="M14.5 19.2007L14.9986 18.9853C16.0441 18.5366 16.9468 17.8105 17.6092 16.8855C18.2715 15.9606 18.6681 14.872 18.756 13.7378L18.9997 10.6095C19.0037 10.48 18.9631 10.353 18.8847 10.2498C18.8062 10.1466 18.6947 10.0735 18.5689 10.0426L14.5 9L10.4311 10.0201C10.3053 10.0509 10.1939 10.124 10.1154 10.2271C10.037 10.3303 9.99635 10.4572 10.0003 10.5867L10.244 13.7149C10.3319 14.8492 10.7285 15.9378 11.3908 16.8628C12.0531 17.7879 12.9559 18.514 14.0014 18.9627L14.5 19.2007Z" stroke="#444444" stroke-width="1.1" stroke-linecap="round" stroke-linejoin="round"/>
<path d="M13 14.0001L14.0001 14.9999L16 13" stroke="#444444" stroke-width="1.1" stroke-linecap="round" stroke-linejoin="round"/>
</svg>
