<svg viewBox="0 0 60 60" fill="none" xmlns="http://www.w3.org/2000/svg">
<path d="M12.5 52.5C11.125 52.5 9.94833 52.0108 8.97 51.0325C7.99167 50.0542 7.50167 48.8767 7.5 47.5V12.5C7.5 11.125 7.99 9.94833 8.97 8.97C9.95 7.99167 11.1267 7.50167 12.5 7.5H47.5C47.8333 7.5 48.1458 7.53167 48.4375 7.595C48.7292 7.65833 49.0208 7.75167 49.3125 7.875L44.6875 12.5H12.5V47.5H47.5V30.875L52.5 25.875V47.5C52.5 48.875 52.0108 50.0525 51.0325 51.0325C50.0542 52.0125 48.8767 52.5017 47.5 52.5H12.5ZM28.8125 42.5L14.6875 28.375L18.1875 24.875L28.8125 35.5L51.75 12.5625L55.3125 16L28.8125 42.5Z" fill="white"/>
</svg>
