<svg width="42" height="39" viewBox="0 0 42 39" fill="none" xmlns="http://www.w3.org/2000/svg">
<path d="M26.2087 27.2503C27.3545 27.2503 28.3357 26.8427 29.1524 26.0274C29.9691 25.2121 30.3767 24.2309 30.3753 23.0837C30.3739 21.9364 29.9663 20.9559 29.1524 20.142C28.3385 19.3281 27.3573 18.9198 26.2087 18.917C25.6878 18.917 25.1934 19.0128 24.7253 19.2045C24.2573 19.3962 23.8316 19.6475 23.4482 19.9587L17.8753 17.1462V16.5212L23.4482 13.7087C23.8302 14.0212 24.2559 14.2732 24.7253 14.4649C25.1948 14.6566 25.6892 14.7517 26.2087 14.7503C27.3545 14.7503 28.3357 14.3427 29.1524 13.5274C29.9691 12.7121 30.3767 11.7309 30.3753 10.5837C30.3739 9.43644 29.9663 8.45588 29.1524 7.64199C28.3385 6.8281 27.3573 6.41977 26.2087 6.41699C25.0601 6.41421 24.0795 6.82255 23.267 7.64199C22.4545 8.46144 22.0462 9.44199 22.042 10.5837V10.8962L16.4691 13.7087C16.0871 13.3962 15.6621 13.1441 15.1941 12.9524C14.726 12.7607 14.2309 12.6656 13.7087 12.667C12.5628 12.667 11.5823 13.0753 10.767 13.892C9.95172 14.7087 9.54338 15.6892 9.542 16.8337C9.54061 17.9781 9.94894 18.9594 10.767 19.7774C11.585 20.5955 12.5656 21.0031 13.7087 21.0003C14.2295 21.0003 14.7246 20.9052 15.1941 20.7149C15.6635 20.5246 16.0885 20.2725 16.4691 19.9587L22.042 22.7712V23.0837C22.042 24.2295 22.4503 25.2107 23.267 26.0274C24.0837 26.8441 25.0642 27.2517 26.2087 27.2503ZM8.50033 33.5003L3.70866 38.292C3.04894 38.9517 2.29338 39.0996 1.442 38.7357C0.590607 38.3719 0.165607 37.7205 0.166996 36.7816V4.33366C0.166996 3.18783 0.575329 2.20727 1.392 1.39199C2.20866 0.576714 3.18922 0.168381 4.33366 0.166992H37.667C38.8128 0.166992 39.7941 0.575326 40.6107 1.39199C41.4274 2.20866 41.835 3.18921 41.8337 4.33366V29.3337C41.8337 30.4795 41.426 31.4607 40.6107 32.2774C39.7955 33.0941 38.8142 33.5017 37.667 33.5003H8.50033Z" fill="white"/>
</svg>
