<svg width="20" height="20" viewBox="0 0 20 20" fill="none" xmlns="http://www.w3.org/2000/svg">
<path d="M6.17583 5.33333H14.3192C16.0783 5.33333 16.9583 5.33333 17.59 5.755C17.8642 5.9375 18.0983 6.17167 18.2817 6.445C18.5158 6.795 18.62 7.2225 18.6667 7.83417M10.3517 5.33417L9.8225 4.2775C9.38417 3.4025 8.98417 2.5225 8.0125 2.15917C7.5875 2 7.10167 2 6.12917 2C4.6125 2 3.85417 2 3.28417 2.31667C2.87862 2.54237 2.5439 2.87651 2.3175 3.28167C2 3.85 2 4.60667 2 6.12083V8.66667C2 12.5958 2 14.56 3.22333 15.78C4.30833 16.8633 5.9675 16.9858 9.08333 16.9992H9.5M16.2983 12.1425C16.371 12.2906 16.4722 12.4229 16.5962 12.5317C16.7203 12.6405 16.8646 12.7237 17.0209 12.7764C17.1772 12.8292 17.3424 12.8505 17.507 12.8391C17.6716 12.8277 17.8322 12.7838 17.9798 12.71C18.1273 12.6362 18.2588 12.5339 18.3666 12.4091C18.4745 12.2842 18.5565 12.1392 18.6081 11.9825C18.6596 11.8258 18.6796 11.6604 18.6669 11.496C18.6542 11.3315 18.6091 11.1711 18.5342 11.0242C18.3843 10.7303 18.1244 10.5076 17.8111 10.4046C17.4978 10.3016 17.1564 10.3265 16.8614 10.4741C16.5664 10.6216 16.3417 10.8798 16.2362 11.1923C16.1308 11.5048 16.1531 11.8464 16.2983 12.1425ZM16.2983 12.1425L13.535 13.5242M13.535 13.5242C13.409 13.2723 13.2018 13.0704 12.9467 12.9511C12.6917 12.8318 12.4038 12.8021 12.1298 12.8668C11.8557 12.9315 11.6116 13.0868 11.4368 13.3076C11.2621 13.5284 11.167 13.8018 11.167 14.0833C11.167 14.3649 11.2621 14.6382 11.4368 14.859C11.6116 15.0798 11.8557 15.2352 12.1298 15.2999C12.4038 15.3646 12.6917 15.3349 12.9467 15.2156C13.2018 15.0963 13.409 14.8943 13.535 14.6425M13.535 13.5242C13.6218 13.6978 13.667 13.8892 13.667 14.0833C13.667 14.2774 13.6218 14.4689 13.535 14.6425M13.535 14.6425L16.2983 16.0242M16.2983 16.0242C16.2249 16.171 16.1811 16.3309 16.1695 16.4947C16.1578 16.6585 16.1786 16.823 16.2305 16.9787C16.2824 17.1345 16.3645 17.2785 16.4721 17.4026C16.5797 17.5266 16.7106 17.6282 16.8575 17.7017C17.0044 17.7751 17.1642 17.8189 17.328 17.8305C17.4918 17.8422 17.6563 17.8214 17.8121 17.7695C18.1266 17.6646 18.3867 17.4391 18.535 17.1425C18.6833 16.8459 18.7077 16.5025 18.6028 16.1879C18.498 15.8734 18.2724 15.6133 17.9758 15.465C17.6792 15.3167 17.3359 15.2923 17.0213 15.3972C16.7067 15.502 16.4466 15.7276 16.2983 16.0242Z" stroke="#444444" stroke-width="1.25" stroke-linecap="round" stroke-linejoin="round"/>
</svg>
