<svg width="20" height="20" viewBox="0 0 20 20" fill="none" xmlns="http://www.w3.org/2000/svg">
<path d="M3.616 18C3.15533 18 2.771 17.846 2.463 17.538C2.155 17.23 2.00067 16.8453 2 16.384V3.616C2 3.15533 2.15433 2.771 2.463 2.463C2.77167 2.155 3.156 2.00067 3.616 2H16.385C16.845 2 17.2293 2.15433 17.538 2.463C17.8467 2.77167 18.0007 3.156 18 3.616V16.385C18 16.845 17.846 17.2293 17.538 17.538C17.23 17.8467 16.8453 18.0007 16.384 18H3.616ZM10 14.616C10.6333 14.616 11.2083 14.4327 11.725 14.066C12.2417 13.6993 12.6 13.216 12.8 12.616H17V3.616C17 3.436 16.9423 3.28833 16.827 3.173C16.7117 3.05767 16.5643 3 16.385 3H3.615C3.43567 3 3.28833 3.05767 3.173 3.173C3.05767 3.28833 3 3.436 3 3.616V12.616H7.2C7.4 13.216 7.75833 13.6993 8.275 14.066C8.79167 14.4327 9.36667 14.616 10 14.616Z" fill="#4F4B5C" stroke="#4F4B5C" stroke-width="0.5" stroke-linejoin="round"/>
</svg>
