<svg width="14" height="14" viewBox="0 0 14 14" fill="none" xmlns="http://www.w3.org/2000/svg">
<path d="M12.8337 12.25V11.0833C12.8337 9.99609 12.09 9.08253 11.0837 8.82351M9.04199 1.91961C9.89711 2.26575 10.5003 3.1041 10.5003 4.08333C10.5003 5.06257 9.89711 5.90091 9.04199 6.24706M9.91699 12.25C9.91699 11.1628 9.91699 10.6192 9.73938 10.1904C9.50256 9.61867 9.04832 9.16443 8.47659 8.92761C8.04779 8.75 7.50419 8.75 6.41699 8.75H4.66699C3.5798 8.75 3.0362 8.75 2.6074 8.92761C2.03567 9.16443 1.58143 9.61867 1.34461 10.1904C1.16699 10.6192 1.16699 11.1628 1.16699 12.25M7.87533 4.08333C7.87533 5.372 6.83066 6.41667 5.54199 6.41667C4.25333 6.41667 3.20866 5.372 3.20866 4.08333C3.20866 2.79467 4.25333 1.75 5.54199 1.75C6.83066 1.75 7.87533 2.79467 7.87533 4.08333Z" stroke="#3B3C3F" stroke-width="1.25" stroke-linecap="round" stroke-linejoin="round"/>
</svg>
