<svg viewBox="0 0 36 35" fill="none" xmlns="http://www.w3.org/2000/svg">
<path d="M21.5391 6.95996C23.2421 6.96017 24.623 8.34083 24.623 10.0439V24.0986C24.6228 25.8016 23.242 27.1824 21.5391 27.1826H7.48438C5.78126 27.1826 4.4006 25.8017 4.40039 24.0986V10.0439C4.40044 8.34073 5.78116 6.96001 7.48438 6.95996H21.5391ZM14.5117 10.4736C10.859 10.4738 7.89787 13.4195 7.89746 17.0527C7.89746 20.573 10.6768 23.4479 14.1719 23.624L14.5117 23.6328C18.0507 23.6327 20.941 20.8679 21.1182 17.3916L21.127 17.0527C21.1265 13.4194 18.1645 10.4737 14.5117 10.4736ZM14.5117 12.9844C16.7908 12.9845 18.6158 14.8184 18.6162 17.0527C18.6162 19.2874 16.791 21.122 14.5117 21.1221C12.2325 21.1219 10.4082 19.2873 10.4082 17.0527C10.4086 14.8185 12.2327 12.9846 14.5117 12.9844Z" fill="white"/>
<path d="M27.002 12.5119C27.002 12.1369 27.1972 11.789 27.5173 11.5936L30.2873 9.90284C30.9325 9.50901 31.76 9.97339 31.76 10.7293V17.0713H27.002V12.5119Z" fill="white"/>
<path d="M27.002 21.6121C27.002 21.9871 27.1972 22.335 27.5173 22.5304L30.2873 24.2212C30.9325 24.615 31.76 24.1506 31.76 23.3947V17.0527H27.002V21.6121Z" fill="white"/>
</svg>
